HIERARCHY
ROOT Hips
{
	OFFSET 0.000000 0.000000 0.000000
	CHANNELS 6 Xposition Yposition Zposition Zrotation Yrotation Xrotation 
	JOINT LowerBack
	{
		OFFSET 0.000000 0.000000 0.000000
		CHANNELS 3 Zrotation Yrotation Xrotation
		JOINT Spine
		{
			OFFSET 0.028270 2.035590 -0.193380
			CHANNELS 3 Zrotation Yrotation Xrotation
			JOINT Spine1
			{
				OFFSET 0.056720 2.048850 -0.042750
				CHANNELS 3 Zrotation Yrotation Xrotation
				JOINT Neck
				{
					OFFSET 0.000000 0.000000 0.000000
					CHANNELS 3 Zrotation Yrotation Xrotation
					JOINT Neck1
					{
						OFFSET -0.054170 1.746240 0.172020
						CHANNELS 3 Zrotation Yrotation Xrotation
						JOINT Head
						{
							OFFSET 0.104070 1.761360 -0.123970
							CHANNELS 3 Zrotation Yrotation Xrotation
							End Site
							{
								OFFSET 0.000000 0.000000 0.000000
							}
						}
					}
				}
				JOINT LeftShoulder
				{
					OFFSET 0.000000 0.000000 0.000000
					CHANNELS 3 Zrotation Yrotation Xrotation
					JOINT LeftArm
					{
						OFFSET 3.362410 1.200890 -0.311210
						CHANNELS 3 Zrotation Yrotation Xrotation
						JOINT LeftForeArm
						{
							OFFSET 4.983000 -0.000000 -0.000000
							CHANNELS 3 Zrotation Yrotation Xrotation
							JOINT LeftHand
							{
								OFFSET 3.483560 -0.000000 -0.000000
								CHANNELS 3 Zrotation Yrotation Xrotation
								JOINT LeftFingerBase
								{
									OFFSET 0.000000 0.000000 0.000000
									CHANNELS 3 Zrotation Yrotation Xrotation
									JOINT LeftHandIndex1
									{
										OFFSET 0.715260 -0.000000 -0.000000
										CHANNELS 3 Zrotation Yrotation Xrotation
										End Site
										{
											OFFSET 0.000000 0.000000 0.000000
										}
									}
								}
								JOINT LThumb
								{
									OFFSET 0.000000 0.000000 0.000000
									CHANNELS 3 Zrotation Yrotation Xrotation
									End Site
									{
										OFFSET 0.000000 0.000000 0.000000
									}
								}
							}
						}
					}
				}
				JOINT RightShoulder
				{
					OFFSET 0.000000 0.000000 0.000000
					CHANNELS 3 Zrotation Yrotation Xrotation
					JOINT RightArm
					{
						OFFSET -3.136600 1.374050 -0.404650
						CHANNELS 3 Zrotation Yrotation Xrotation
						JOINT RightForeArm
						{
							OFFSET -5.241900 -0.000000 -0.000000
							CHANNELS 3 Zrotation Yrotation Xrotation
							JOINT RightHand
							{
								OFFSET -3.444170 -0.000000 -0.000000
								CHANNELS 3 Zrotation Yrotation Xrotation
								JOINT RightFingerBase
								{
									OFFSET 0.000000 0.000000 0.000000
									CHANNELS 3 Zrotation Yrotation Xrotation
									JOINT RightHandIndex1
									{
										OFFSET -0.622530 -0.000000 -0.000000
										CHANNELS 3 Zrotation Yrotation Xrotation
										End Site
										{
											OFFSET 0.000000 0.000000 0.000000
										}
									}
								}
								JOINT RThumb
								{
									OFFSET 0.000000 0.000000 0.000000
									CHANNELS 3 Zrotation Yrotation Xrotation
									End Site
									{
										OFFSET 0.000000 0.000000 0.000000
									}
								}
							}
						}
					}
				}
			}
		}
	}
}
}
MOTION
Frames: 18
Frame Time: 0.008333
1.374817 17.132095 0.802479 -1.806304 -83.020814 12.405811 -4.665640 -1.911388 -5.259549 -1.718405 -1.735651 -3.679729 -6.848737 -1.821052 1.210727 11.793797 -12.446216 -10.040039 -2.666350 -0.182967 -0.613925 0.000000 0.000000 0.000000 0.069365 10.121106 1.395820 -63.218769 8.084331 13.290597 -3.505605 -30.303444 -0.001978 0.559405 1.681701 0.010651 -0.115422 -0.031418 -0.000000 0.000000 0.000000 0.000000 0.000000 0.000000 0.000000 14.943198 -8.520091 1.041473 74.345201 -4.439939 1.109296 3.395988 23.751795 0.018857 -1.150627 9.878095 -0.108992 0.110658 -0.086918 0.000000 0.000000 0.000000 0.000000 0.000000 0.000000 0.000000 
1.384784 17.142670 0.828081 -3.738847 -82.442265 13.953051 -4.496722 -1.975594 -5.012037 -1.686243 -1.808887 -3.635579 -6.855803 -1.888248 1.182877 11.765695 -12.427449 -9.932507 -2.668726 -0.184146 -0.585791 0.000000 0.000000 0.000000 0.124124 9.739455 1.405412 -63.081891 7.579018 13.255083 -3.523931 -29.804168 -0.002083 0.632021 1.725540 0.012054 -0.116707 -0.029383 -0.000000 0.000000 0.000000 0.000000 0.000000 0.000000 0.000000 14.886583 -8.606089 1.041232 74.415094 -4.723328 0.884006 3.411325 23.395842 0.018764 -1.042367 9.827508 -0.099013 0.109700 -0.084284 0.000000 0.000000 0.000000 0.000000 0.000000 0.000000 0.000000 
1.396157 17.154998 0.853490 -5.700024 -81.839692 15.499010 -4.289821 -2.055314 -4.746637 -1.645938 -1.900449 -3.585577 -6.862783 -1.972991 1.163303 11.746171 -12.424191 -9.822761 -2.670864 -0.185291 -0.557065 0.000000 0.000000 0.000000 0.174173 9.377208 1.412290 -62.947390 7.024111 13.246248 -3.540552 -29.278552 -0.002160 0.726569 1.756140 0.013658 -0.118061 -0.027085 -0.000000 0.000000 0.000000 0.000000 0.000000 0.000000 0.000000 14.842557 -8.722547 1.033806 74.470313 -4.980222 0.675246 3.428169 23.029880 0.018622 -0.913487 9.746166 -0.086935 0.108653 -0.081402 0.000000 0.000000 0.000000 0.000000 0.000000 0.000000 0.000000 
1.408681 17.169064 0.878515 -7.671201 -81.222640 17.032170 -4.046047 -2.148022 -4.475244 -1.597896 -2.007755 -3.535218 -6.870594 -2.073379 1.139649 11.728410 -12.425395 -9.698275 -2.674284 -0.186759 -0.523993 0.000000 0.000000 0.000000 0.210156 8.968226 1.415736 -62.810913 6.522060 13.194897 -3.553843 -28.791833 -0.002228 0.823698 1.780679 0.015460 -0.119234 -0.024750 -0.000000 0.000000 0.000000 0.000000 0.000000 0.000000 0.000000 14.801711 -8.855647 1.025179 74.520849 -5.230588 0.449127 3.447089 22.658980 0.018414 -0.760396 9.626299 -0.072759 0.107505 -0.078340 -0.000000 0.000000 0.000000 0.000000 0.000000 0.000000 0.000000 
1.422189 17.184954 0.903211 -9.652803 -80.606484 18.559843 -3.765080 -2.250543 -4.204374 -1.541851 -2.127564 -3.484322 -6.878185 -2.186081 1.118535 11.709917 -12.435812 -9.566114 -2.677585 -0.188334 -0.488566 0.000000 0.000000 0.000000 0.222436 8.553750 1.415407 -62.658271 6.030558 13.155956 -3.564069 -28.327247 -0.002281 0.924740 1.795931 0.017164 -0.120292 -0.022402 -0.000000 0.000000 0.000000 0.000000 0.000000 0.000000 0.000000 14.759155 -9.008184 1.012408 74.564611 -5.458103 0.220896 3.467973 22.274041 0.018157 -0.595295 9.477489 -0.057783 0.106357 -0.075121 -0.000000 0.000000 0.000000 0.000000 0.000000 0.000000 0.000000 
1.436485 17.202735 0.927571 -11.647340 -80.006394 20.091420 -3.447607 -2.358630 -3.941301 -1.478137 -2.255546 -3.435562 -6.885811 -2.307057 1.095696 11.685571 -12.445366 -9.422285 -2.681559 -0.190160 -0.449619 0.000000 0.000000 0.000000 0.203852 8.119344 1.411764 -62.483593 5.578721 13.118882 -3.570787 -27.903944 -0.002321 1.023572 1.804484 0.018767 -0.121161 -0.020153 -0.000000 0.000000 0.000000 0.000000 0.000000 0.000000 0.000000 14.708618 -9.166315 0.997482 74.605323 -5.672360 -0.029178 3.491371 21.877625 0.017860 -0.416088 9.303471 -0.041909 0.105210 -0.071808 -0.000000 0.000000 0.000000 0.000000 0.000000 0.000000 0.000000 
1.451648 17.222386 0.951700 -13.668326 -79.435952 21.643363 -3.094389 -2.468265 -3.690723 -1.406935 -2.387552 -3.389749 -6.892750 -2.432207 1.072120 11.651801 -12.452199 -9.268722 -2.685840 -0.192184 -0.407718 0.000000 0.000000 0.000000 0.150326 7.677343 1.405143 -62.284145 5.155042 13.098445 -3.574262 -27.514382 -0.002345 1.120080 1.804813 0.020370 -0.121854 -0.018028 -0.000000 0.000000 0.000000 0.000000 0.000000 0.000000 0.000000 14.644969 -9.324967 0.980115 74.641704 -5.870177 -0.296113 3.517507 21.470553 0.017532 -0.224045 9.108416 -0.025533 0.104094 -0.068433 -0.000000 0.000000 0.000000 0.000000 0.000000 0.000000 0.000000 
1.467559 17.243832 0.975726 -15.726752 -78.905227 23.232265 -2.706268 -2.575639 -3.455259 -1.328436 -2.519649 -3.347103 -6.898153 -2.557606 1.049506 11.606211 -12.456558 -9.108156 -2.690070 -0.194339 -0.363675 0.000000 0.000000 0.000000 0.060713 7.240346 1.395939 -62.061488 4.743803 13.105128 -3.575015 -27.145020 -0.002349 1.216029 1.794817 0.021774 -0.122404 -0.016027 -0.000000 0.000000 0.000000 0.000000 0.000000 0.000000 0.000000 14.565159 -9.481888 0.960138 74.669212 -6.047390 -0.563512 3.546539 21.056340 0.017178 -0.019243 8.894021 -0.008858 0.103033 -0.064996 -0.000000 0.000000 0.000000 0.000000 0.000000 0.000000 0.000000 
1.484349 17.266939 0.999858 -17.843413 -78.419811 24.879631 -2.282687 -2.677311 -3.233911 -1.242523 -2.648356 -3.307045 -6.900963 -2.679719 1.029716 11.547033 -12.461543 -8.944078 -2.693667 -0.196522 -0.318546 0.000000 0.000000 0.000000 -0.063290 6.820159 1.384416 -61.822969 4.324963 13.143818 -3.573580 -26.777315 -0.002322 1.315081 1.771635 0.022977 -0.122851 -0.014112 -0.000000 0.000000 0.000000 0.000000 0.000000 0.000000 0.000000 14.466558 -9.638089 0.937498 74.680840 -6.196200 -0.803149 3.578625 20.638190 0.016802 0.199536 8.661707 0.008118 0.102045 -0.061481 -0.000000 0.000000 0.000000 0.000000 0.000000 0.000000 0.000000 
1.502235 17.291500 1.024409 -20.047455 -77.979381 26.612925 -1.819264 -2.769863 -3.022991 -1.148799 -2.770524 -3.270904 -6.902029 -2.795627 1.004869 11.470854 -12.445180 -8.769006 -2.698785 -0.199013 -0.270352 0.000000 0.000000 0.000000 -0.216631 6.389568 1.372808 -61.581542 3.926895 13.176356 -3.570135 -26.415772 -0.002271 1.416587 1.736680 0.024079 -0.123145 -0.012269 -0.000000 0.000000 0.000000 0.000000 0.000000 0.000000 0.000000 14.347458 -9.767658 0.915447 74.677398 -6.341213 -1.048833 3.615184 20.234517 0.016394 0.457345 8.405542 0.027094 0.100984 -0.057912 -0.000000 0.000000 0.000000 0.000000 0.000000 0.000000 0.000000 
1.521344 17.317182 1.049659 -22.355207 -77.579390 28.447718 -1.313105 -2.851470 -2.814933 -1.046520 -2.884356 -3.235875 -6.899773 -2.903319 0.980551 11.379086 -12.420605 -8.590927 -2.704048 -0.201561 -0.221461 0.000000 0.000000 0.000000 -0.392985 5.972534 1.360967 -61.350280 3.505414 13.214390 -3.565526 -26.026013 -0.002190 1.528055 1.685170 0.024982 -0.123374 -0.010381 -0.000000 0.000000 0.000000 0.000000 0.000000 0.000000 0.000000 14.208895 -9.883935 0.892989 74.645114 -6.461029 -1.237819 3.655898 19.847783 0.015946 0.751724 8.122821 0.047270 0.099888 -0.054199 -0.000000 0.000000 0.000000 0.000000 0.000000 0.000000 0.000000 
1.542192 17.343616 1.075948 -24.788444 -77.209908 30.399145 -0.758349 -2.920599 -2.599741 -0.934773 -2.988533 -3.200946 -6.894364 -3.001545 0.953228 11.271443 -12.379031 -8.407999 -2.710397 -0.204249 -0.171516 0.000000 0.000000 0.000000 -0.584147 5.556991 1.350380 -61.146163 3.060514 13.233623 -3.559989 -25.598057 -0.002077 1.651998 1.616701 0.025784 -0.123528 -0.008352 -0.000000 0.000000 0.000000 0.000000 0.000000 0.000000 0.000000 14.051882 -9.976513 0.872144 74.577581 -6.561762 -1.363971 3.701432 19.491846 0.015434 1.098778 7.805691 0.069245 0.098660 -0.050292 -0.000000 0.000000 0.000000 0.000000 0.000000 0.000000 0.000000 
1.565173 17.370291 1.103609 -27.353440 -76.857171 32.469437 -0.149371 -2.976760 -2.366007 -0.812595 -3.082660 -3.164290 -6.885828 -3.089942 0.921662 11.149173 -12.317546 -8.220837 -2.718292 -0.207080 -0.120847 0.000000 0.000000 0.000000 -0.781419 5.137872 1.342204 -60.984908 2.582438 13.217232 -3.553748 -25.119243 -0.001943 1.791310 1.530985 0.026286 -0.123614 -0.006070 -0.000000 0.000000 0.000000 0.000000 0.000000 0.000000 0.000000 13.878956 -10.042265 0.854381 74.466792 -6.640539 -1.405372 3.751984 19.177628 0.014836 1.508341 7.446827 0.093019 0.097233 -0.046118 -0.000000 0.000000 0.000000 0.000000 0.000000 0.000000 0.000000 
1.590833 17.396654 1.132859 -30.039269 -76.505948 34.642769 0.516694 -3.020909 -2.101577 -0.679395 -3.167455 -3.123353 -6.873819 -3.169249 0.886799 11.014869 -12.241673 -8.032909 -2.727420 -0.209950 -0.070583 0.000000 0.000000 0.000000 -0.975879 4.715766 1.336995 -60.880233 2.052181 13.158907 -3.546789 -24.576192 -0.001794 1.948581 1.428143 0.026487 -0.123639 -0.003412 -0.000000 0.000000 0.000000 0.000000 0.000000 0.000000 0.000000 13.693240 -10.087789 0.840672 74.301875 -6.683866 -1.318575 3.806977 18.911096 0.014121 1.980698 7.041531 0.117192 0.095590 -0.041575 -0.000000 0.000000 0.000000 0.000000 0.000000 0.000000 0.000000 
1.619643 17.422058 1.163856 -32.819335 -76.138902 36.888754 1.243195 -3.054495 -1.794749 -0.534917 -3.244065 -3.077585 -6.859892 -3.240900 0.842146 10.869794 -12.133602 -7.838878 -2.739630 -0.213055 -0.019405 0.000000 0.000000 0.000000 -1.158524 4.265585 1.337291 -60.842457 1.488178 13.031255 -3.538665 -23.980332 -0.001647 2.121080 1.312756 0.026286 -0.123537 -0.000299 0.000000 0.000000 0.000000 0.000000 0.000000 0.000000 0.000000 13.498300 -10.094748 0.834185 74.082870 -6.705703 -1.127387 3.866700 18.708581 0.013259 2.530326 6.583335 0.141463 0.093610 -0.036635 -0.000000 0.000000 0.000000 0.000000 0.000000 0.000000 0.000000 
1.652142 17.445849 1.196615 -35.644794 -75.741479 39.155769 2.027541 -3.080680 -1.435147 -0.379626 -3.314743 -3.024694 -6.844199 -3.307270 0.788873 10.717799 -12.000350 -7.642362 -2.754514 -0.216282 0.031529 0.000000 0.000000 0.000000 -1.321786 3.787467 1.343653 -60.875861 0.876124 12.839135 -3.528814 -23.332177 -0.001522 2.307720 1.187910 0.025685 -0.123294 0.003357 0.000000 0.000000 0.000000 0.000000 0.000000 0.000000 0.000000 13.298660 -10.072202 0.835802 73.801634 -6.690189 -0.791947 3.929640 18.573437 0.012227 3.147248 6.074515 0.163532 0.091315 -0.031226 -0.000000 0.000000 0.000000 0.000000 0.000000 0.000000 0.000000 
1.688767 17.467357 1.230965 -38.458188 -75.301165 41.384912 2.866590 -3.103143 -1.014067 -0.214353 -3.382093 -2.963772 -6.828009 -3.371234 0.724081 10.561756 -11.835330 -7.441892 -2.772795 -0.219681 0.082481 0.000000 0.000000 0.000000 -1.459583 3.268905 1.357824 -60.979248 0.223344 12.582506 -3.516336 -22.649435 -0.001441 2.503755 1.060250 0.024683 -0.122857 0.007598 0.000000 0.000000 0.000000 0.000000 0.000000 0.000000 0.000000 13.098606 -10.014695 0.847429 73.456993 -6.637952 -0.314037 3.994614 18.513575 0.011007 3.826248 5.519876 0.181499 0.088693 -0.025344 -0.000000 0.000000 0.000000 0.000000 0.000000 0.000000 0.000000 
1.729692 17.485949 1.266426 -41.181046 -74.811737 43.500748 3.747939 -3.126776 -0.527679 -0.041561 -3.449247 -2.893702 -6.812168 -3.436116 0.648906 10.407155 -11.646093 -7.240290 -2.794159 -0.223164 0.132557 0.000000 0.000000 0.000000 -1.564899 2.708967 1.380082 -61.144755 -0.472542 12.279958 -3.500366 -21.950797 -0.001425 2.704302 0.935774 0.023379 -0.122209 0.012427 0.000000 0.000000 0.000000 0.000000 0.000000 0.000000 0.000000 12.905314 -9.932243 0.869598 73.044842 -6.536570 0.336564 4.059022 18.530664 0.009602 4.547185 4.933507 0.193463 0.085809 -0.019004 -0.000000 0.000000 0.000000 0.000000 0.000000 0.000000 0.000000 
